<mxfile host="65bd71144e">
    <diagram id="KDUaaJCT5n2zj9K8bogQ" name="第 1 页">
        <mxGraphModel dx="745" dy="497" grid="1" gridSize="10" guides="1" tooltips="1" connect="1" arrows="1" fold="1" page="1" pageScale="1" pageWidth="827" pageHeight="1169" math="0" shadow="0">
            <root>
                <mxCell id="0"/>
                <mxCell id="1" parent="0"/>
                <mxCell id="2" value="" style="sketch=0;pointerEvents=1;shadow=0;dashed=0;html=1;strokeColor=none;fillColor=#505050;labelPosition=center;verticalLabelPosition=bottom;verticalAlign=top;outlineConnect=0;align=center;shape=mxgraph.office.devices.nic;fontFamily=Times New Roman;strokeWidth=2;" parent="1" vertex="1">
                    <mxGeometry x="350" y="314" width="57" height="38" as="geometry"/>
                </mxCell>
                <mxCell id="3" value="" style="sketch=0;pointerEvents=1;shadow=0;dashed=0;html=1;strokeColor=#1BA1E2;fillColor=#1ba1e2;aspect=fixed;labelPosition=center;verticalLabelPosition=bottom;verticalAlign=top;align=center;outlineConnect=0;shape=mxgraph.vvd.ssd;fontFamily=Times New Roman;fontColor=#ffffff;strokeWidth=2;" parent="1" vertex="1">
                    <mxGeometry x="414" y="315" width="50" height="35.5" as="geometry"/>
                </mxCell>
                <mxCell id="4" value="" style="rounded=1;whiteSpace=wrap;html=1;fontFamily=Times New Roman;strokeWidth=2;" parent="1" vertex="1">
                    <mxGeometry x="335" y="209" width="360" height="100" as="geometry"/>
                </mxCell>
                <mxCell id="24" value="" style="endArrow=classic;html=1;entryX=0.241;entryY=1.005;entryDx=0;entryDy=0;entryPerimeter=0;fontFamily=Times New Roman;strokeWidth=2;" parent="1" source="2" target="61" edge="1">
                    <mxGeometry width="50" height="50" relative="1" as="geometry">
                        <mxPoint x="371" y="360" as="sourcePoint"/>
                        <mxPoint x="380" y="300" as="targetPoint"/>
                    </mxGeometry>
                </mxCell>
                <mxCell id="25" value="" style="endArrow=classic;html=1;strokeColor=#1BA1E2;entryX=0.74;entryY=1.004;entryDx=0;entryDy=0;entryPerimeter=0;fontFamily=Times New Roman;strokeWidth=2;" parent="1" source="3" target="61" edge="1">
                    <mxGeometry width="50" height="50" relative="1" as="geometry">
                        <mxPoint x="439" y="360" as="sourcePoint"/>
                        <mxPoint x="439" y="320" as="targetPoint"/>
                    </mxGeometry>
                </mxCell>
                <mxCell id="48" value="" style="shape=table;html=1;whiteSpace=wrap;startSize=0;container=1;collapsible=0;childLayout=tableLayout;fontFamily=Times New Roman;strokeWidth=2;" parent="1" vertex="1">
                    <mxGeometry x="500" y="230" width="180" height="61" as="geometry"/>
                </mxCell>
                <mxCell id="49" value="" style="shape=tableRow;horizontal=0;startSize=0;swimlaneHead=0;swimlaneBody=0;top=0;left=0;bottom=0;right=0;collapsible=0;dropTarget=0;fillColor=none;points=[[0,0.5],[1,0.5]];portConstraint=eastwest;fontFamily=Times New Roman;strokeWidth=2;" parent="48" vertex="1">
                    <mxGeometry width="180" height="21" as="geometry"/>
                </mxCell>
                <mxCell id="50" value="&lt;font&gt;nic_h1&lt;/font&gt;" style="shape=partialRectangle;html=1;whiteSpace=wrap;connectable=0;fillColor=none;top=0;left=0;bottom=0;right=0;overflow=hidden;fontFamily=Times New Roman;strokeWidth=2;" parent="49" vertex="1">
                    <mxGeometry width="46" height="21" as="geometry">
                        <mxRectangle width="46" height="21" as="alternateBounds"/>
                    </mxGeometry>
                </mxCell>
                <mxCell id="51" value="nic_h2" style="shape=partialRectangle;html=1;whiteSpace=wrap;connectable=0;fillColor=none;top=0;left=0;bottom=0;right=0;overflow=hidden;fontFamily=Times New Roman;strokeWidth=2;" parent="49" vertex="1">
                    <mxGeometry x="46" width="44" height="21" as="geometry">
                        <mxRectangle width="44" height="21" as="alternateBounds"/>
                    </mxGeometry>
                </mxCell>
                <mxCell id="52" value="......" style="shape=partialRectangle;html=1;whiteSpace=wrap;connectable=0;fillColor=none;top=0;left=0;bottom=0;right=0;overflow=hidden;fontFamily=Times New Roman;strokeWidth=2;" parent="49" vertex="1">
                    <mxGeometry x="90" width="46" height="21" as="geometry">
                        <mxRectangle width="46" height="21" as="alternateBounds"/>
                    </mxGeometry>
                </mxCell>
                <mxCell id="64" value="nic_hn" style="shape=partialRectangle;html=1;whiteSpace=wrap;connectable=0;fillColor=none;top=0;left=0;bottom=0;right=0;overflow=hidden;fontFamily=Times New Roman;strokeWidth=2;" parent="49" vertex="1">
                    <mxGeometry x="136" width="44" height="21" as="geometry">
                        <mxRectangle width="44" height="21" as="alternateBounds"/>
                    </mxGeometry>
                </mxCell>
                <mxCell id="53" value="" style="shape=tableRow;horizontal=0;startSize=0;swimlaneHead=0;swimlaneBody=0;top=0;left=0;bottom=0;right=0;collapsible=0;dropTarget=0;fillColor=none;points=[[0,0.5],[1,0.5]];portConstraint=eastwest;fontFamily=Times New Roman;strokeWidth=2;" parent="48" vertex="1">
                    <mxGeometry y="21" width="180" height="19" as="geometry"/>
                </mxCell>
                <mxCell id="54" value="......" style="shape=partialRectangle;html=1;whiteSpace=wrap;connectable=0;fillColor=none;top=0;left=0;bottom=0;right=0;overflow=hidden;rowspan=1;colspan=4;fontFamily=Times New Roman;strokeWidth=2;" parent="53" vertex="1">
                    <mxGeometry width="180" height="19" as="geometry">
                        <mxRectangle width="46" height="19" as="alternateBounds"/>
                    </mxGeometry>
                </mxCell>
                <mxCell id="55" value="" style="shape=partialRectangle;html=1;whiteSpace=wrap;connectable=0;fillColor=none;top=0;left=0;bottom=0;right=0;overflow=hidden;" parent="53" vertex="1" visible="0">
                    <mxGeometry x="46" width="44" height="19" as="geometry">
                        <mxRectangle width="44" height="19" as="alternateBounds"/>
                    </mxGeometry>
                </mxCell>
                <mxCell id="56" value="" style="shape=partialRectangle;html=1;whiteSpace=wrap;connectable=0;fillColor=none;top=0;left=0;bottom=0;right=0;overflow=hidden;" parent="53" vertex="1" visible="0">
                    <mxGeometry x="90" width="46" height="19" as="geometry">
                        <mxRectangle width="46" height="19" as="alternateBounds"/>
                    </mxGeometry>
                </mxCell>
                <mxCell id="65" value="" style="shape=partialRectangle;html=1;whiteSpace=wrap;connectable=0;fillColor=none;top=0;left=0;bottom=0;right=0;overflow=hidden;" parent="53" vertex="1" visible="0">
                    <mxGeometry x="136" width="44" height="19" as="geometry">
                        <mxRectangle width="44" height="19" as="alternateBounds"/>
                    </mxGeometry>
                </mxCell>
                <mxCell id="57" value="" style="shape=tableRow;horizontal=0;startSize=0;swimlaneHead=0;swimlaneBody=0;top=0;left=0;bottom=0;right=0;collapsible=0;dropTarget=0;fillColor=none;points=[[0,0.5],[1,0.5]];portConstraint=eastwest;fontFamily=Times New Roman;strokeWidth=2;" parent="48" vertex="1">
                    <mxGeometry y="40" width="180" height="21" as="geometry"/>
                </mxCell>
                <mxCell id="58" value="ssd_h1" style="shape=partialRectangle;html=1;whiteSpace=wrap;connectable=0;fillColor=none;top=0;left=0;bottom=0;right=0;overflow=hidden;fontFamily=Times New Roman;strokeWidth=2;" parent="57" vertex="1">
                    <mxGeometry width="46" height="21" as="geometry">
                        <mxRectangle width="46" height="21" as="alternateBounds"/>
                    </mxGeometry>
                </mxCell>
                <mxCell id="59" value="ssd_h2" style="shape=partialRectangle;html=1;whiteSpace=wrap;connectable=0;fillColor=none;top=0;left=0;bottom=0;right=0;overflow=hidden;fontFamily=Times New Roman;strokeWidth=2;" parent="57" vertex="1">
                    <mxGeometry x="46" width="44" height="21" as="geometry">
                        <mxRectangle width="44" height="21" as="alternateBounds"/>
                    </mxGeometry>
                </mxCell>
                <mxCell id="60" value="......" style="shape=partialRectangle;html=1;whiteSpace=wrap;connectable=0;fillColor=none;top=0;left=0;bottom=0;right=0;overflow=hidden;pointerEvents=1;fontFamily=Times New Roman;strokeWidth=2;" parent="57" vertex="1">
                    <mxGeometry x="90" width="46" height="21" as="geometry">
                        <mxRectangle width="46" height="21" as="alternateBounds"/>
                    </mxGeometry>
                </mxCell>
                <mxCell id="66" value="ssd_hn" style="shape=partialRectangle;html=1;whiteSpace=wrap;connectable=0;fillColor=none;top=0;left=0;bottom=0;right=0;overflow=hidden;pointerEvents=1;fontFamily=Times New Roman;strokeWidth=2;" parent="57" vertex="1">
                    <mxGeometry x="136" width="44" height="21" as="geometry">
                        <mxRectangle width="44" height="21" as="alternateBounds"/>
                    </mxGeometry>
                </mxCell>
                <mxCell id="61" value="&lt;font style=&quot;font-size: 24px;&quot;&gt;Logic&amp;nbsp;&lt;br&gt;Circuit&lt;/font&gt;" style="rounded=1;whiteSpace=wrap;html=1;fontFamily=Times New Roman;strokeWidth=2;" parent="1" vertex="1">
                    <mxGeometry x="350" y="229.5" width="120" height="60" as="geometry"/>
                </mxCell>
                <mxCell id="62" value="" style="endArrow=classic;html=1;exitX=0;exitY=0.5;exitDx=0;exitDy=0;entryX=0.997;entryY=0.353;entryDx=0;entryDy=0;entryPerimeter=0;fontFamily=Times New Roman;strokeWidth=2;" parent="1" source="49" target="61" edge="1">
                    <mxGeometry width="50" height="50" relative="1" as="geometry">
                        <mxPoint x="400" y="240" as="sourcePoint"/>
                        <mxPoint x="450" y="190" as="targetPoint"/>
                    </mxGeometry>
                </mxCell>
                <mxCell id="63" value="" style="endArrow=classic;html=1;entryX=1;entryY=0.5;entryDx=0;entryDy=0;exitX=0;exitY=0.5;exitDx=0;exitDy=0;strokeColor=#1BA1E2;fontFamily=Times New Roman;strokeWidth=2;" parent="1" source="57" target="61" edge="1">
                    <mxGeometry width="50" height="50" relative="1" as="geometry">
                        <mxPoint x="640" y="410" as="sourcePoint"/>
                        <mxPoint x="690" y="360" as="targetPoint"/>
                    </mxGeometry>
                </mxCell>
                <mxCell id="68" value="" style="endArrow=classic;html=1;strokeColor=#B20000;entryX=0.419;entryY=1.039;entryDx=0;entryDy=0;entryPerimeter=0;exitX=0.589;exitY=0.009;exitDx=0;exitDy=0;exitPerimeter=0;fontFamily=Times New Roman;strokeWidth=2;fillColor=#e51400;" parent="1" source="61" target="29" edge="1">
                    <mxGeometry width="50" height="50" relative="1" as="geometry">
                        <mxPoint x="420" y="230" as="sourcePoint"/>
                        <mxPoint x="464" y="180" as="targetPoint"/>
                    </mxGeometry>
                </mxCell>
                <mxCell id="70" value="PScheduler" style="text;html=1;align=center;verticalAlign=middle;resizable=0;points=[];autosize=1;strokeColor=none;fillColor=none;fontSize=24;fontFamily=Times New Roman;strokeWidth=2;" parent="1" vertex="1">
                    <mxGeometry x="215" y="140" width="130" height="40" as="geometry"/>
                </mxCell>
                <mxCell id="71" value="Ext Intr&lt;br&gt;Dispatcher" style="text;html=1;align=center;verticalAlign=middle;resizable=0;points=[];autosize=1;strokeColor=none;fillColor=none;fontSize=24;fontFamily=Times New Roman;strokeWidth=2;" parent="1" vertex="1">
                    <mxGeometry x="213" y="224.5" width="130" height="70" as="geometry"/>
                </mxCell>
                <mxCell id="81" value="" style="group" parent="1" vertex="1" connectable="0">
                    <mxGeometry x="384" y="111" width="60" height="80" as="geometry"/>
                </mxCell>
                <mxCell id="27" value="" style="shape=partialRectangle;whiteSpace=wrap;html=1;bottom=0;top=0;fillColor=default;strokeWidth=2;fontFamily=Times New Roman;" parent="81" vertex="1">
                    <mxGeometry width="40" height="60" as="geometry"/>
                </mxCell>
                <mxCell id="28" value="" style="shape=partialRectangle;whiteSpace=wrap;html=1;bottom=0;top=0;fillColor=default;strokeWidth=2;fontFamily=Times New Roman;" parent="81" vertex="1">
                    <mxGeometry x="10" y="10" width="40" height="60" as="geometry"/>
                </mxCell>
                <mxCell id="29" value="" style="shape=partialRectangle;whiteSpace=wrap;html=1;bottom=0;top=0;fillColor=default;strokeWidth=2;fontFamily=Times New Roman;" parent="81" vertex="1">
                    <mxGeometry x="20" y="20" width="40" height="60" as="geometry"/>
                </mxCell>
            </root>
        </mxGraphModel>
    </diagram>
</mxfile>